<svg width="20" height="22" viewBox="0 0 20 22" fill="none" xmlns="http://www.w3.org/2000/svg">
<path d="M7.5 10.3662L9.48824 12.3601C9.60592 12.4781 9.79767 12.4762 9.91292 12.3558L13.2273 8.89351M1.78791 3.91615C3.82497 4.24492 7.27354 4.01718 9.47171 1.27256C9.77586 0.892793 10.4425 0.916762 10.7403 1.30152C11.8868 2.78271 14.309 4.46839 18.2525 3.88572C18.5937 3.8353 18.9207 4.06372 18.9482 4.40753C19.2978 8.77768 18.0338 17.0705 10.342 19.9921C10.208 20.043 10.0599 20.0435 9.92749 19.9885C6.51396 18.5695 0.378297 13.6605 1.05107 4.46529C1.07757 4.10313 1.42941 3.85829 1.78791 3.91615Z" stroke="#A0A0A0" stroke-width="2" stroke-linecap="round"/>
</svg>
