<svg width="18" height="21" viewBox="0 0 18 21" fill="none" xmlns="http://www.w3.org/2000/svg">
<path d="M8.61914 20.4705C3.85892 20.4705 0 16.6115 0 11.8513C0 7.0911 3.85892 3.23218 8.61914 3.23218C13.3794 3.23218 17.2383 7.0911 17.2383 11.8513C17.2329 16.6093 13.3771 20.4651 8.61914 20.4705ZM8.61914 5.38697C5.04898 5.38697 2.15479 8.28116 2.15479 11.8513C2.15479 15.4215 5.04898 18.3157 8.61914 18.3157C12.1893 18.3157 15.0835 15.4215 15.0835 11.8513C15.0793 8.28288 12.1876 5.39112 8.61914 5.38697ZM9.69653 11.8513C9.69653 12.4464 9.21417 12.9287 8.61914 12.9287C8.02411 12.9287 7.54175 12.4464 7.54175 11.8513V8.61915C7.54175 8.02412 8.02411 7.54175 8.61914 7.54175C9.21417 7.54175 9.69653 8.02412 9.69653 8.61914V11.8513ZM16.4776 6.1476C16.477 6.1482 16.4761 6.1482 16.4755 6.14761L15.0835 4.75561C14.6628 4.33493 14.6628 3.65286 15.0835 3.23218C15.5042 2.81149 16.1862 2.81149 16.6069 3.23218L16.9226 3.54786C17.5176 4.14288 17.5176 5.10761 16.9226 5.70264L16.4776 6.1476ZM11.8513 1.07739C11.8513 1.67242 11.369 2.15479 10.7739 2.15479H6.46436C5.86933 2.15479 5.38696 1.67242 5.38696 1.07739C5.38696 0.482365 5.86933 0 6.46436 0H10.7739C11.369 0 11.8513 0.482365 11.8513 1.07739Z" fill="#A0A0A0"/>
</svg>
