<svg width="17" height="18" viewBox="0 0 17 18" fill="none" xmlns="http://www.w3.org/2000/svg">
<path d="M14.551 6.8508H14.1653V6.11005C14.1653 2.74095 11.4633 0 8.14186 0C4.82046 0 2.11842 2.74095 2.11842 6.11005V6.8508H1.90614C0.855057 6.8508 0 7.71817 0 8.78439V11.8389C0 12.9051 0.855057 13.7725 1.90614 13.7725H3.23517C3.71292 13.7725 4.10159 13.3782 4.10159 12.8936V7.72971C4.10159 7.24507 3.71292 6.8508 3.23517 6.8508H3.15813V6.11005C3.15813 3.32254 5.39379 1.05469 8.142 1.05469C10.8899 1.05469 13.1256 3.32254 13.1256 6.11005V6.85643C12.6931 6.90518 12.3555 7.27817 12.3555 7.72971V12.8937C12.3555 13.3452 12.6931 13.7181 13.1256 13.767V13.9502C13.1256 15.019 12.2684 15.8886 11.2147 15.8886H9.96272C9.70983 15.2736 9.02819 14.8318 8.2285 14.8318C7.21424 14.8318 6.3891 15.5425 6.3891 16.4159C6.3891 17.2893 7.21424 18 8.2285 18C9.02819 18 9.70983 17.5582 9.96272 16.9433H11.2147C12.8417 16.9433 14.1653 15.6006 14.1653 13.9502V13.7725H14.551C15.602 13.7725 16.4571 12.9051 16.4571 11.8389V8.78439C16.4571 7.71817 15.602 6.8508 14.551 6.8508ZM3.06188 12.7178H1.90614C1.42839 12.7178 1.03971 12.3235 1.03971 11.8389V8.78439C1.03971 8.29976 1.42839 7.90549 1.90614 7.90549H3.06188V12.7178ZM8.2285 16.9453C7.75725 16.9453 7.42882 16.6663 7.42882 16.4159C7.42882 16.1654 7.75725 15.8865 8.2285 15.8865C8.69976 15.8865 9.02819 16.1656 9.02819 16.4159C9.02819 16.6663 8.69976 16.9453 8.2285 16.9453ZM15.4174 11.8389C15.4174 12.3235 15.0288 12.7178 14.551 12.7178H13.3953V7.90549H14.551C15.0288 7.90549 15.4174 8.29976 15.4174 8.78439V11.8389Z" fill="#A0A0A0"/>
</svg>
