<svg width="24" height="18" viewBox="0 0 24 18" fill="none" xmlns="http://www.w3.org/2000/svg">
<path d="M2.25879 11.2861H8.42773C8.47223 11.2862 8.51203 11.3094 8.53418 11.3457L8.5498 11.3857L9.68359 16.8496C9.69964 16.9272 9.63977 17 9.56055 17H1.125C1.06587 16.9998 1.01757 16.9592 1.00391 16.9062L1.00293 16.8496L2.13672 11.3857C2.14875 11.3277 2.19954 11.2861 2.25879 11.2861ZM15.0586 11.2861H21.2275C21.2721 11.2862 21.3118 11.3094 21.334 11.3457L21.3496 11.3857L22.4834 16.8496C22.4995 16.9272 22.4396 17 22.3604 17H13.9258C13.8665 17 13.8174 16.9593 13.8037 16.9062L13.8027 16.8496L14.9365 11.3857C14.9485 11.3278 14.9994 11.2862 15.0586 11.2861ZM8.65918 1H14.8271C14.8715 1 14.9113 1.02351 14.9336 1.05957L14.9502 1.09961L16.083 6.56348C16.0991 6.64105 16.0401 6.71382 15.9609 6.71387H7.52539C7.46598 6.71385 7.41788 6.67331 7.4043 6.62012L7.40332 6.56348L8.53613 1.09961C8.54514 1.05619 8.57639 1.02228 8.61621 1.00781L8.65918 1Z" stroke="#A0A0A0" stroke-width="2"/>
</svg>
