<svg width="14" height="17" viewBox="0 0 14 17" fill="none" xmlns="http://www.w3.org/2000/svg">
<path d="M12.7859 12.1005C12.55 12.0061 12.3324 11.8717 12.1426 11.7033C11.5994 11.2321 11.2481 10.5793 11.1551 9.86794C11.1099 9.51881 11.1251 9.16453 11.2001 8.82052C11.3037 8.36531 11.5332 7.94809 11.8627 7.61615C12.0783 7.40154 12.3002 7.19334 12.5061 6.97553C12.5718 6.91645 12.6128 6.83498 12.6212 6.74722C12.6295 6.65946 12.6045 6.57177 12.5511 6.50147C12.3154 6.19797 12.0407 5.92659 11.7341 5.69428C11.3435 5.40076 10.8952 5.19232 10.4185 5.08249C10.079 4.99895 9.72844 4.96869 9.37955 4.9928C8.79615 5.06292 8.22295 5.20051 7.67154 5.4028C7.24573 5.56011 6.78105 5.58028 6.3431 5.46046C5.819 5.29127 5.28076 5.16907 4.73481 5.0953C4.11767 5.00814 3.48836 5.09628 2.91931 5.34958C2.35026 5.60288 1.8646 6.01105 1.51823 6.52709C1.21631 6.94684 0.985917 7.41327 0.836321 7.90764C0.684002 8.38943 0.596394 8.88919 0.575779 9.39388C0.548491 10.0586 0.607959 10.724 0.75269 11.3734C0.84951 11.801 0.978538 12.2207 1.13868 12.629C1.4966 13.6025 2.01158 14.5113 2.66334 15.3196C3.00487 15.7585 3.44572 16.1109 3.94997 16.3478C4.26809 16.4952 4.6229 16.5453 4.96962 16.492C5.33585 16.4227 5.69377 16.3153 6.03752 16.1717C6.25679 16.0846 6.48411 16.0191 6.71622 15.9763C7.08031 15.9283 7.45065 15.9667 7.79699 16.0884C8.17011 16.2005 8.53037 16.335 8.90349 16.4343C9.16688 16.5112 9.44371 16.5313 9.7155 16.4932C9.98729 16.455 10.2478 16.3596 10.4796 16.2133C11.0652 15.8229 11.5608 15.313 11.9335 14.7175C12.3859 14.0633 12.7423 13.3482 12.9918 12.5938C13.0141 12.5484 13.0265 12.4988 13.0281 12.4483C13.0296 12.3977 13.0204 12.3475 13.0009 12.3008C12.9814 12.2541 12.9522 12.2121 12.9151 12.1775C12.878 12.143 12.834 12.1168 12.7859 12.1005Z" fill="#294570"/>
<path d="M6.76114 4.73324L6.95735 4.71402C7.40394 4.69736 7.83757 4.56006 8.21181 4.31681C8.49206 4.11754 8.74507 3.88279 8.96449 3.61849C9.24307 3.29701 9.46101 2.92804 9.6078 2.52936C9.69702 2.23659 9.75207 1.93455 9.77184 1.62923C9.79114 1.44664 9.79114 1.27046 9.80401 1.08787C9.81567 1.0231 9.81044 0.956424 9.78882 0.894238C9.7672 0.832053 9.72991 0.776436 9.68052 0.732716C9.63113 0.688995 9.57129 0.658633 9.50675 0.644539C9.4422 0.630445 9.3751 0.63309 9.31187 0.652221C8.99402 0.727469 8.6847 0.834801 8.38872 0.972552C7.93428 1.16606 7.53125 1.46216 7.21146 1.83745C6.66907 2.52633 6.36448 3.37119 6.34299 4.24634V4.39049C6.34113 4.44262 6.35135 4.49447 6.37287 4.54203C6.39438 4.58959 6.42661 4.63157 6.46705 4.66472C6.50749 4.69787 6.55506 4.7213 6.60606 4.73318C6.65707 4.74506 6.71013 4.74508 6.76114 4.73324Z" fill="#294570"/>
</svg>
