<svg width="23" height="17" viewBox="0 0 23 17" fill="none" xmlns="http://www.w3.org/2000/svg">
<path d="M20.1161 8.88663C20.1161 8.80296 20.1161 8.7193 20.1161 8.63563C20.1131 6.54399 18.5048 4.85137 16.5286 4.85459C15.9296 4.85459 15.3428 5.01548 14.8169 5.32119C14.1206 2.2159 11.1807 0.298025 8.24984 1.03493C5.8024 1.64955 4.06943 3.95679 4.05423 6.62122C4.05423 6.6534 4.05423 6.6888 4.05423 6.72098C1.46998 7.3356 -0.156582 10.0515 0.424114 12.7867C0.913602 15.1036 2.85635 16.7512 5.09705 16.7544H18.7845C20.9066 16.7544 22.6244 14.9363 22.6274 12.6934C22.6274 10.9944 21.6302 9.47551 20.1283 8.88341L20.1161 8.88663ZM8.28024 13.6942C8.28024 13.9709 8.06742 14.1962 7.80595 14.1962C7.54449 14.1962 7.33167 13.9709 7.33167 13.6942V11.1681C7.33167 10.8914 7.54449 10.6661 7.80595 10.6661C8.06742 10.6661 8.28024 10.8914 8.28024 11.1681V13.6942ZM10.3659 13.6942C10.3659 13.9709 10.1531 14.1962 9.8916 14.1962C9.63013 14.1962 9.41731 13.9709 9.41731 13.6942V9.38219C9.41731 9.10545 9.63013 8.88019 9.8916 8.88019C10.1531 8.88019 10.3659 9.10545 10.3659 9.38219V13.6942ZM12.4515 13.6717C12.4515 13.9484 12.2387 14.1737 11.9772 14.1737C11.7158 14.1737 11.503 13.9484 11.503 13.6717V12.5904C11.503 12.3137 11.7158 12.0885 11.9772 12.0885C12.2387 12.0885 12.4515 12.3137 12.4515 12.5904V13.6717ZM14.5372 13.617C14.5372 13.8937 14.3243 14.119 14.0629 14.119C13.8014 14.119 13.5886 13.8937 13.5886 13.617V7.87621C13.5886 7.59947 13.8014 7.37421 14.0629 7.37421C14.3243 7.37421 14.5372 7.59947 14.5372 7.87621V13.617Z" fill="#294570"/>
</svg>
