<svg width="15" height="17" viewBox="0 0 15 17" fill="none" xmlns="http://www.w3.org/2000/svg">
<path d="M2.88237 0.802424C2.68734 0.683516 2.46543 0.615335 2.23703 0.604149C2.00863 0.592963 1.78106 0.63913 1.57526 0.738408L8.62866 7.78015L10.9358 5.47203L2.88237 0.802424ZM0.925276 1.39279C0.834957 1.58412 0.788596 1.79309 0.789566 2.0045V14.8824C0.78919 15.0918 0.836827 15.2986 0.928848 15.487L7.97868 8.42743L0.925276 1.39279ZM8.62866 9.08181L1.58597 16.1271C1.76973 16.2107 1.96965 16.2532 2.17168 16.2516C2.42296 16.2541 2.67009 16.1877 2.88594 16.0595L10.9358 11.3828L8.62866 9.08181ZM13.9857 7.2538L11.7572 5.93792L9.27865 8.42743L11.7607 10.9169L14.0035 9.61528C14.206 9.49244 14.3734 9.3198 14.4895 9.11395C14.6056 8.90811 14.6666 8.67597 14.6666 8.43987C14.6666 8.20377 14.6056 7.97164 14.4895 7.76579C14.3734 7.55995 14.206 7.38731 14.0035 7.26447L13.9857 7.2538Z" fill="#294570"/>
</svg>
